<svg 
 xmlns="http://www.w3.org/2000/svg"
 xmlns:xlink="http://www.w3.org/1999/xlink"
 width="34px" height="34px">
<path fill-rule="evenodd"  fill="rgb(218, 218, 218)"
 d="M17.274,34.000 C8.037,34.000 0.549,26.447 0.549,17.132 C0.549,7.815 8.037,0.264 17.274,0.264 C26.511,0.264 34.000,7.815 34.000,17.132 C34.000,26.447 26.511,34.000 17.274,34.000 ZM17.274,4.481 C10.346,4.481 4.730,10.144 4.730,17.132 C4.730,24.118 10.346,29.783 17.274,29.783 C24.202,29.783 29.819,24.118 29.819,17.132 C29.819,10.144 24.202,4.481 17.274,4.481 ZM24.043,20.015 C23.858,20.455 23.630,20.878 23.366,21.275 C23.102,21.666 22.800,22.035 22.469,22.371 C22.137,22.705 21.771,23.009 21.383,23.274 C20.989,23.542 20.569,23.772 20.134,23.958 C19.689,24.147 19.226,24.292 18.754,24.389 C18.269,24.490 17.772,24.540 17.274,24.540 C16.776,24.540 16.279,24.490 15.795,24.389 C15.322,24.292 14.858,24.147 14.414,23.958 C13.979,23.772 13.559,23.542 13.165,23.274 C12.777,23.009 12.412,22.705 12.079,22.371 C11.748,22.035 11.446,21.666 11.183,21.275 C10.918,20.878 10.690,20.455 10.506,20.015 C10.318,19.568 10.174,19.100 10.078,18.624 C9.978,18.135 9.928,17.633 9.928,17.132 C9.928,16.629 9.978,16.128 10.078,15.639 C10.174,15.163 10.318,14.695 10.506,14.247 C10.690,13.808 10.918,13.384 11.183,12.988 C11.446,12.596 11.748,12.228 12.079,11.893 C12.412,11.558 12.777,11.254 13.165,10.988 C13.559,10.720 13.979,10.491 14.414,10.305 C14.858,10.116 15.322,9.971 15.795,9.873 C16.279,9.773 16.776,9.723 17.274,9.723 C17.772,9.723 18.269,9.773 18.754,9.873 C19.226,9.971 19.689,10.116 20.134,10.305 C20.569,10.491 20.989,10.720 21.383,10.988 C21.771,11.254 22.137,11.558 22.469,11.893 C22.800,12.228 23.102,12.596 23.366,12.988 C23.630,13.384 23.858,13.808 24.043,14.247 C24.230,14.695 24.374,15.163 24.471,15.639 C24.571,16.128 24.620,16.629 24.620,17.132 C24.620,17.633 24.571,18.135 24.471,18.624 C24.374,19.100 24.230,19.568 24.043,20.015 ZM20.756,22.242 C21.064,22.027 21.357,21.784 21.622,21.516 C21.901,21.235 22.153,20.927 22.373,20.599 C22.595,20.267 22.786,19.913 22.940,19.545 C23.098,19.171 23.218,18.780 23.299,18.381 C23.317,18.287 23.326,18.191 23.341,18.097 C23.290,18.082 23.221,18.063 23.143,18.043 C23.131,18.040 23.119,18.036 23.106,18.033 C22.929,17.989 22.695,17.937 22.413,17.890 C22.412,17.890 22.411,17.889 22.409,17.889 C21.686,17.769 20.662,17.685 19.557,17.864 C20.305,19.942 20.653,21.669 20.756,22.242 ZM13.836,22.274 C14.166,22.497 14.516,22.690 14.880,22.845 C15.252,23.004 15.640,23.125 16.034,23.207 C16.440,23.290 16.856,23.333 17.274,23.333 C17.692,23.333 18.109,23.290 18.513,23.207 C18.908,23.125 19.297,23.004 19.667,22.845 C19.679,22.841 19.690,22.834 19.702,22.829 C19.580,22.146 19.206,20.313 18.382,18.154 C18.369,18.159 18.356,18.162 18.342,18.167 C17.968,18.298 17.625,18.446 17.300,18.601 C17.254,18.623 17.205,18.644 17.160,18.667 C16.858,18.816 16.580,18.973 16.321,19.135 C16.272,19.165 16.224,19.195 16.177,19.226 C15.926,19.389 15.692,19.554 15.481,19.721 C15.447,19.747 15.417,19.773 15.384,19.800 C15.170,19.973 14.969,20.147 14.794,20.317 C14.794,20.318 14.794,20.318 14.794,20.318 C14.615,20.491 14.461,20.658 14.320,20.820 C14.300,20.842 14.279,20.865 14.260,20.888 C14.132,21.038 14.021,21.179 13.924,21.310 C13.906,21.335 13.888,21.359 13.871,21.383 C13.782,21.507 13.704,21.623 13.643,21.720 C13.633,21.737 13.624,21.751 13.615,21.767 C13.557,21.861 13.508,21.945 13.477,22.003 C13.595,22.096 13.713,22.190 13.836,22.274 ZM11.135,16.932 C11.133,16.999 11.125,17.065 11.125,17.132 C11.125,17.553 11.168,17.973 11.250,18.381 C11.331,18.780 11.451,19.171 11.609,19.545 C11.763,19.913 11.954,20.267 12.175,20.599 C12.326,20.822 12.509,21.020 12.686,21.223 C12.728,21.156 12.791,21.060 12.864,20.953 C12.877,20.933 12.886,20.919 12.900,20.899 C12.978,20.787 13.072,20.658 13.180,20.517 C13.201,20.490 13.221,20.464 13.243,20.435 C13.359,20.288 13.487,20.131 13.634,19.963 C13.656,19.938 13.679,19.913 13.702,19.888 C13.861,19.710 14.033,19.526 14.228,19.337 C14.417,19.153 14.628,18.967 14.851,18.783 C14.886,18.755 14.917,18.727 14.952,18.699 C15.170,18.523 15.406,18.352 15.655,18.187 C15.702,18.156 15.749,18.125 15.797,18.095 C16.054,17.931 16.324,17.776 16.610,17.633 C16.653,17.612 16.698,17.593 16.742,17.572 C17.049,17.427 17.368,17.291 17.709,17.180 C17.789,17.154 17.870,17.134 17.951,17.111 C17.792,16.749 17.625,16.385 17.444,16.028 C14.906,16.793 12.456,16.916 11.467,16.930 L11.467,16.930 C11.326,16.932 11.212,16.933 11.135,16.932 ZM14.676,11.517 C14.385,11.654 14.101,11.808 13.836,11.989 C13.511,12.211 13.205,12.465 12.927,12.746 C12.647,13.026 12.396,13.335 12.175,13.664 C11.954,13.996 11.763,14.350 11.609,14.717 C11.458,15.075 11.344,15.448 11.264,15.827 C11.329,15.827 11.419,15.827 11.530,15.824 C11.532,15.824 11.536,15.824 11.538,15.824 C11.763,15.819 12.076,15.808 12.457,15.783 C12.458,15.783 12.459,15.783 12.460,15.783 C13.419,15.719 14.810,15.565 16.348,15.200 C16.348,15.200 16.348,15.200 16.349,15.199 C16.539,15.155 16.732,15.106 16.926,15.054 C15.968,13.336 14.958,11.908 14.676,11.517 ZM20.712,11.989 C20.384,11.766 20.032,11.573 19.667,11.417 C19.296,11.259 18.908,11.138 18.513,11.056 C18.109,10.972 17.692,10.930 17.274,10.930 C16.856,10.930 16.440,10.972 16.034,11.056 C15.982,11.066 15.931,11.084 15.880,11.096 C16.181,11.506 17.197,12.928 18.135,14.665 C18.380,14.572 18.610,14.473 18.824,14.373 C18.828,14.371 18.832,14.369 18.836,14.367 C20.342,13.655 21.095,12.801 21.328,12.501 C21.128,12.324 20.932,12.139 20.712,11.989 ZM23.299,15.881 C23.218,15.483 23.098,15.093 22.940,14.717 C22.786,14.350 22.595,13.996 22.373,13.664 C22.271,13.511 22.140,13.380 22.024,13.237 C21.772,13.555 20.942,14.463 19.373,15.261 C19.357,15.269 19.340,15.277 19.323,15.285 C19.102,15.396 18.870,15.503 18.619,15.607 C18.767,15.912 18.910,16.221 19.042,16.534 C19.089,16.645 19.128,16.752 19.173,16.862 C19.396,16.834 19.618,16.814 19.838,16.801 C19.876,16.798 19.912,16.797 19.949,16.795 C20.138,16.785 20.322,16.779 20.505,16.777 C20.536,16.777 20.567,16.776 20.598,16.776 C20.807,16.776 21.011,16.780 21.207,16.788 C21.222,16.789 21.236,16.790 21.250,16.790 C21.428,16.798 21.598,16.809 21.763,16.823 C21.802,16.825 21.840,16.828 21.879,16.832 C22.039,16.846 22.192,16.861 22.334,16.877 C22.343,16.878 22.354,16.879 22.363,16.880 C22.516,16.898 22.653,16.917 22.782,16.935 C22.814,16.940 22.842,16.944 22.873,16.949 C22.969,16.964 23.055,16.977 23.132,16.991 C23.154,16.994 23.176,16.998 23.196,17.001 C23.287,17.017 23.362,17.031 23.419,17.043 C23.413,16.652 23.375,16.262 23.299,15.881 Z"/>
</svg>