<svg 
 xmlns="http://www.w3.org/2000/svg"
 xmlns:xlink="http://www.w3.org/1999/xlink"
 width="34px" height="34px">
<path fill-rule="evenodd"  fill="rgb(218, 218, 218)"
 d="M16.832,34.000 C7.594,34.000 0.106,26.447 0.106,17.132 C0.106,7.815 7.594,0.264 16.832,0.264 C26.068,0.264 33.557,7.815 33.557,17.132 C33.557,26.447 26.068,34.000 16.832,34.000 ZM16.832,4.481 C9.904,4.481 4.287,10.144 4.287,17.132 C4.287,24.118 9.904,29.783 16.832,29.783 C23.759,29.783 29.376,24.118 29.376,17.132 C29.376,10.144 23.759,4.481 16.832,4.481 ZM12.545,13.489 L12.545,11.509 C18.174,11.509 22.737,16.113 22.737,21.788 L20.773,21.788 C20.773,17.212 17.084,13.489 12.545,13.489 ZM19.169,21.788 L17.205,21.788 C17.205,19.196 15.114,17.087 12.545,17.087 L12.545,15.107 C16.205,15.107 19.169,18.100 19.169,21.788 ZM13.746,19.365 C14.410,19.365 14.948,19.907 14.948,20.576 C14.948,21.246 14.410,21.788 13.746,21.788 C13.083,21.788 12.545,21.246 12.545,20.576 C12.545,19.907 13.083,19.365 13.746,19.365 Z"/>
</svg>